<svg xmlns="http://www.w3.org/2000/svg" width="512" height="512" viewBox="0 0 512 512">
  <defs>
    <linearGradient id="bg" x1="0%" y1="0%" x2="100%" y2="100%">
      <stop offset="0%" stop-color="#6366F1"/>
      <stop offset="100%" stop-color="#A78BFA"/>
    </linearGradient>
  </defs>
  <rect width="512" height="512" rx="96" fill="url(#bg)"/>
  <g transform="translate(256,256)" fill="white">
    <path d="M0-138a138 138 0 0 1 0 276a138 138 0 0 1 0-276zm0 42a96 96 0 0 0 0 192a96 96 0 0 0 0-192z"/>
    <g id="teeth">
      <rect x="-22" y="-165" width="44" height="54" rx="10"/>
      <rect x="-22" y="-165" width="44" height="54" rx="10" transform="rotate(45)"/>
      <rect x="-22" y="-165" width="44" height="54" rx="10" transform="rotate(90)"/>
      <rect x="-22" y="-165" width="44" height="54" rx="10" transform="rotate(135)"/>
      <rect x="-22" y="-165" width="44" height="54" rx="10" transform="rotate(180)"/>
      <rect x="-22" y="-165" width="44" height="54" rx="10" transform="rotate(225)"/>
      <rect x="-22" y="-165" width="44" height="54" rx="10" transform="rotate(270)"/>
      <rect x="-22" y="-165" width="44" height="54" rx="10" transform="rotate(315)"/>
    </g>
  </g>
</svg>
