<svg xmlns="http://www.w3.org/2000/svg" width="192" height="192" viewBox="0 0 192 192">
  <defs>
    <linearGradient id="bg" x1="0%" y1="0%" x2="100%" y2="100%">
      <stop offset="0%" stop-color="#6366F1"/>
      <stop offset="100%" stop-color="#A78BFA"/>
    </linearGradient>
  </defs>
  <rect width="192" height="192" rx="40" fill="url(#bg)"/>
  <g transform="translate(96,96)" fill="white">
    <path d="M0-52a52 52 0 0 1 0 104a52 52 0 0 1 0-104zm0 16a36 36 0 0 0 0 72a36 36 0 0 0 0-72z"/>
    <g id="teeth">
      <rect x="-8" y="-62" width="16" height="20" rx="4"/>
      <rect x="-8" y="-62" width="16" height="20" rx="4" transform="rotate(45)"/>
      <rect x="-8" y="-62" width="16" height="20" rx="4" transform="rotate(90)"/>
      <rect x="-8" y="-62" width="16" height="20" rx="4" transform="rotate(135)"/>
      <rect x="-8" y="-62" width="16" height="20" rx="4" transform="rotate(180)"/>
      <rect x="-8" y="-62" width="16" height="20" rx="4" transform="rotate(225)"/>
      <rect x="-8" y="-62" width="16" height="20" rx="4" transform="rotate(270)"/>
      <rect x="-8" y="-62" width="16" height="20" rx="4" transform="rotate(315)"/>
    </g>
  </g>
</svg>
